<svg xmlns="http://www.w3.org/2000/svg">

<defs>
	<style>
		.img { display: none }
		.img:target { display: inline }
	</style>
</defs>

<svg viewBox="0 0 15 15">
	<g id="phone" class="img">
		<path fill="#88919D" d="M13.2611 8.92444C13.2593 8.92421 13.2575 8.92395 13.2557 8.92371C12.6376 8.84221 12.0281 8.69036 11.4454 8.47292C10.7209 8.20058 9.89684 8.37621 9.34629 8.9206C9.34547 8.9214 9.34468 8.92222 9.34386 8.92301L8.79908 9.46778C7.46792 8.63142 6.34101 7.50451 5.50465 6.17335L6.04942 5.62857C6.05024 5.62778 6.05103 5.62699 6.05182 5.62617C6.59619 5.07568 6.77194 4.25171 6.50001 3.5284C6.2821 2.94437 6.13022 2.33487 6.04872 1.7168C6.04848 1.71495 6.04822 1.71308 6.04796 1.71126C5.90965 0.732363 5.06467 0 4.07795 0C4.07256 0 4.06699 2.92969e-05 4.06157 5.85938e-05H1.988C1.92917 0.000117188 1.86961 0.0028418 1.81081 0.00814453C1.2815 0.0559863 0.802497 0.30709 0.462038 0.715166C0.121579 1.1233 -0.0395833 1.63954 0.00825847 2.16885C0.00855144 2.17201 0.00884441 2.17515 0.00919597 2.17831C0.245094 4.39983 1.01159 6.56511 2.22589 8.44025C3.32789 10.1737 4.82637 11.6722 6.55986 12.7742C8.42634 13.9841 10.5816 14.7506 12.7927 14.9908C12.7963 14.9912 12.7999 14.9916 12.8036 14.9919C12.863 14.9973 12.9234 15 12.9836 15C12.986 15 12.9884 15 12.9908 14.9999C13.5223 14.9977 14.0211 14.7888 14.3954 14.4114C14.7696 14.0341 14.9746 13.5336 14.9724 13.0046V10.9358C14.9934 9.92918 14.259 9.06524 13.2611 8.92444ZM13.7608 10.9139C13.7606 10.919 13.7606 10.924 13.7606 10.929V13.0072C13.7614 13.2149 13.6813 13.4106 13.535 13.5581C13.3887 13.7056 13.1937 13.7873 12.9862 13.7882C12.9639 13.7883 12.9402 13.7873 12.9175 13.7854C10.8951 13.5647 8.92389 12.8629 7.21687 11.756C7.21532 11.7549 7.21374 11.7539 7.21216 11.7529C5.62611 10.7451 4.25508 9.37409 3.24726 7.78805C3.24633 7.78655 3.24539 7.78509 3.24442 7.78356C2.13322 6.06832 1.43144 4.08782 1.21482 2.05564C1.17864 1.63014 1.49408 1.25353 1.91976 1.21509C1.94282 1.21301 1.96614 1.21192 1.98858 1.21192H4.06427C4.06878 1.21192 4.07338 1.21187 4.07789 1.21187C4.46285 1.21187 4.79267 1.49707 4.84772 1.87852C4.94127 2.58595 5.1152 3.28354 5.36519 3.95341C5.47154 4.2363 5.40319 4.55792 5.19111 4.77311L4.31388 5.65037C4.12101 5.84323 4.08076 6.14121 4.21561 6.37831C5.25398 8.20444 6.76805 9.71848 8.59415 10.7569C8.83125 10.8916 9.12926 10.8515 9.32212 10.6586L10.1993 9.78138C10.4145 9.5693 10.7362 9.50095 11.0204 9.60782C11.6889 9.85728 12.3866 10.0312 13.094 10.1247C13.4841 10.1809 13.7706 10.5198 13.7608 10.9139Z"/>
	</g>
</svg>

<svg viewBox="0 0 15 15">
	<g id="link" class="img">
		<path fill="#88919D" d="M12.8033 2.19671C11.3867 0.780147 9.50332 0 7.5 0C5.49668 0 3.61327 0.780176 2.19671 2.19671C0.780147 3.61324 0 5.49668 0 7.5C0 9.50332 0.780147 11.3867 2.19671 12.8033C3.61324 14.2199 5.49668 15 7.5 15C9.50332 15 11.3867 14.2199 12.8033 12.8033C14.2199 11.3867 15 9.50332 15 7.5C15 5.49668 14.2199 3.61324 12.8033 2.19671ZM7.5 13.7882C4.03271 13.7882 1.21184 10.9673 1.21184 7.5C1.21184 4.03271 4.03271 1.21184 7.5 1.21184C10.9673 1.21184 13.7882 4.03271 13.7882 7.5C13.7882 10.9673 10.9673 13.7882 7.5 13.7882Z"/>
		<path fill="#88919D" d="M14.3941 6.75H0.605918C0.271289 6.75 0 7.02129 0 7.35592C0 7.69057 0.271289 7.96183 0.605918 7.96183H14.3941C14.7287 7.96183 15 7.69057 15 7.35592C15 7.02129 14.7287 6.75 14.3941 6.75Z"/>
		<path fill="#88919D" d="M8.3109 0.197285C8.19611 0.0716016 8.03372 0 7.86353 0C7.69332 0 7.53096 0.0716016 7.41614 0.197256C5.59203 2.19428 4.55645 4.78327 4.50011 7.48737C4.49996 7.49581 4.49996 7.50422 4.50011 7.51263C4.55645 10.2167 5.59203 12.8058 7.41614 14.8027C7.53096 14.9284 7.69329 15 7.86353 15C8.03372 15 8.19611 14.9284 8.3109 14.8028C10.135 12.8058 11.1706 10.2168 11.227 7.51266C11.2271 7.50422 11.2271 7.49581 11.227 7.4874C11.1706 4.78327 10.135 2.19428 8.3109 0.197285ZM7.86353 13.4602C6.51893 11.766 5.76005 9.67503 5.71197 7.5C5.76011 5.32497 6.51893 3.23396 7.86353 1.53981C9.20817 3.23399 9.96702 5.325 10.0151 7.5C9.96699 9.67503 9.20817 11.7661 7.86353 13.4602Z"/>
	</g>
</svg>

<svg viewBox="0 0 20 20">
	<g id="email" class="img">
		<path fill="#88919D" d="M17.3536 1.83789H2.64629C1.18711 1.83789 0 3.02504 0 4.48418V15.5146C0 16.9738 1.18711 18.1609 2.64629 18.1609H17.3536C18.8128 18.1609 19.9999 16.9738 19.9999 15.5146V4.48418C19.9999 3.025 18.8128 1.83789 17.3536 1.83789ZM18.3841 15.5146C18.3841 16.0828 17.9218 16.5451 17.3536 16.5451H2.64629C2.07809 16.5451 1.61578 16.0828 1.61578 15.5146V4.48418C1.61578 3.91598 2.07809 3.45368 2.64629 3.45368H17.3536C17.9218 3.45368 18.3841 3.91598 18.3841 4.48418V15.5146Z"/>
		<path fill="#88919D" d="M19.8539 4.02049C19.598 3.65498 19.0944 3.56608 18.7287 3.82194L9.99994 9.93198L1.27122 3.8219C0.90571 3.566 0.401959 3.65494 0.1461 4.02045C-0.10976 4.38596 -0.0208538 4.88971 0.344655 5.14557L9.5367 11.58C9.6758 11.6774 9.83787 11.726 9.99998 11.726C10.162 11.726 10.3242 11.6774 10.4633 11.58L19.6553 5.14561C20.0208 4.88975 20.1097 4.386 19.8539 4.02049Z"/>
	</g>
</svg>

<svg viewBox="0 0 18 16" fill="none" xmlns="http://www.w3.org/2000/svg">
	<g id="telegram" class="img">
		<path fill="#039BE5" d="M7.06288 10.3861L6.76513 14.5741C7.19113 14.5741 7.37563 14.3911 7.59688 14.1713L9.59413 12.2626L13.7326 15.2933C14.4916 15.7163 15.0264 15.4936 15.2311 14.5951L17.9476 1.86605L17.9484 1.8653C18.1891 0.743304 17.5426 0.304554 16.8031 0.579804L0.835633 6.69305C-0.254117 7.11605 -0.237617 7.72355 0.650383 7.9988L4.73263 9.26855L14.2149 3.3353C14.6611 3.0398 15.0669 3.2033 14.7331 3.4988L7.06288 10.3861Z"/>
	</g>
</svg>

<svg viewBox="0 0 308 308" version="1.1" xmlns="http://www.w3.org/2000/svg" xmlns:xlink="http://www.w3.org/1999/xlink" xml:space="preserve">
	<g id="whatsup" class="img">
		<path fill="#28b13d" d="M227.904,176.981c-0.6-0.288-23.054-11.345-27.044-12.781c-1.629-0.585-3.374-1.156-5.23-1.156 c-3.032,0-5.579,1.511-7.563,4.479c-2.243,3.334-9.033,11.271-11.131,13.642c-0.274,0.313-0.648,0.687-0.872,0.687 c-0.201,0-3.676-1.431-4.728-1.888c-24.087-10.463-42.37-35.624-44.877-39.867c-0.358-0.61-0.373-0.887-0.376-0.887 c0.088-0.323,0.898-1.135,1.316-1.554c1.223-1.21,2.548-2.805,3.83-4.348c0.607-0.731,1.215-1.463,1.812-2.153 c1.86-2.164,2.688-3.844,3.648-5.79l0.503-1.011c2.344-4.657,0.342-8.587-0.305-9.856c-0.531-1.062-10.012-23.944-11.02-26.348 c-2.424-5.801-5.627-8.502-10.078-8.502c-0.413,0,0,0-1.732,0.073c-2.109,0.089-13.594,1.601-18.672,4.802 c-5.385,3.395-14.495,14.217-14.495,33.249c0,17.129,10.87,33.302,15.537,39.453c0.116,0.155,0.329,0.47,0.638,0.922 c17.873,26.102,40.154,45.446,62.741,54.469c21.745,8.686,32.042,9.69,37.896,9.69c0.001,0,0.001,0,0.001,0 c2.46,0,4.429-0.193,6.166-0.364l1.102-0.105c7.512-0.666,24.02-9.22,27.775-19.655c2.958-8.219,3.738-17.199,1.77-20.458 C233.168,179.508,230.845,178.393,227.904,176.981z"/>
		<path fill="#28b13d" d="M156.734,0C73.318,0,5.454,67.354,5.454,150.143c0,26.777,7.166,52.988,20.741,75.928L0.212,302.716 c-0.484,1.429-0.124,3.009,0.933,4.085C1.908,307.58,2.943,308,4,308c0.405,0,0.813-0.061,1.211-0.188l79.92-25.396 c21.87,11.685,46.588,17.853,71.604,17.853C240.143,300.27,308,232.923,308,150.143C308,67.354,240.143,0,156.734,0z M156.734,268.994c-23.539,0-46.338-6.797-65.936-19.657c-0.659-0.433-1.424-0.655-2.194-0.655c-0.407,0-0.815,0.062-1.212,0.188 l-40.035,12.726l12.924-38.129c0.418-1.234,0.209-2.595-0.561-3.647c-14.924-20.392-22.813-44.485-22.813-69.677 c0-65.543,53.754-118.867,119.826-118.867c66.064,0,119.812,53.324,119.812,118.867 C276.546,215.678,222.799,268.994,156.734,268.994z"/>
	</g>
</svg>

<svg viewBox="0 0 20 20">
	<g id="vk" class="img">
		<path fill="#4A76A8" d="M19.894 14.5983C19.8698 14.5461 19.8472 14.5028 19.8262 14.4681C19.4792 13.8431 18.8161 13.076 17.8373 12.1666L17.8166 12.1458L17.8063 12.1356L17.7958 12.1251H17.7853C17.341 11.7016 17.0597 11.4169 16.9419 11.2711C16.7264 10.9934 16.6781 10.7123 16.7959 10.4275C16.8791 10.2123 17.1918 9.75785 17.7331 9.06352C18.0178 8.69555 18.2433 8.40064 18.4099 8.17845C19.611 6.58168 20.1317 5.56132 19.9719 5.11698L19.9099 5.01314C19.8682 4.95063 19.7606 4.89344 19.5872 4.84128C19.4135 4.78924 19.1914 4.78063 18.9206 4.81531L15.9217 4.83603C15.8731 4.81882 15.8037 4.82042 15.7134 4.84128C15.6231 4.86215 15.5779 4.87261 15.5779 4.87261L15.5257 4.89869L15.4843 4.93002C15.4496 4.95074 15.4114 4.98717 15.3697 5.03926C15.3282 5.09116 15.2936 5.15206 15.2658 5.22147C14.9393 6.06147 14.5681 6.84246 14.1515 7.56439C13.8946 7.99488 13.6587 8.36796 13.4433 8.68384C13.2281 8.99962 13.0476 9.23228 12.9019 9.38142C12.756 9.5307 12.6244 9.65029 12.5061 9.74064C12.3881 9.83101 12.298 9.8692 12.2355 9.85523C12.173 9.84126 12.1141 9.8274 12.0583 9.81354C11.9612 9.75103 11.8831 9.66601 11.8242 9.55842C11.765 9.45083 11.7252 9.3154 11.7044 9.15226C11.6836 8.98901 11.6714 8.84859 11.6679 8.73053C11.6646 8.61261 11.6661 8.44583 11.6732 8.23064C11.6804 8.01534 11.6836 7.86967 11.6836 7.7933C11.6836 7.52945 11.6888 7.24311 11.6991 6.93419C11.7096 6.62526 11.7181 6.3805 11.7252 6.20018C11.7323 6.01967 11.7356 5.8287 11.7356 5.62738C11.7356 5.42605 11.7233 5.26816 11.6991 5.15356C11.6752 5.03911 11.6385 4.92801 11.5901 4.82031C11.5414 4.71272 11.4701 4.62949 11.3766 4.5704C11.2829 4.51139 11.1664 4.46456 11.0278 4.42976C10.6598 4.3465 10.1912 4.30145 9.62185 4.29445C8.33069 4.28059 7.50105 4.36397 7.13311 4.54447C6.98733 4.62073 6.85541 4.72494 6.73746 4.85675C6.61247 5.00953 6.59504 5.09291 6.68527 5.10662C7.10186 5.16903 7.39677 5.31831 7.57035 5.55432L7.6329 5.67938C7.68155 5.76962 7.73013 5.92937 7.77875 6.15841C7.8273 6.38746 7.85863 6.64084 7.87241 6.91839C7.90706 7.42525 7.90706 7.85913 7.87241 8.22006C7.83765 8.58114 7.80483 8.86223 7.7735 9.06356C7.74217 9.26489 7.69534 9.42803 7.6329 9.55295C7.57035 9.6779 7.52873 9.75428 7.50787 9.782C7.48704 9.80971 7.46968 9.82719 7.4559 9.83404C7.36566 9.86862 7.27182 9.88623 7.17469 9.88623C7.07742 9.88623 6.95947 9.83758 6.82065 9.74034C6.68188 9.64311 6.53785 9.50955 6.38856 9.33944C6.23928 9.16929 6.07093 8.93153 5.88342 8.62611C5.69606 8.32069 5.50166 7.95972 5.30033 7.5432L5.13376 7.24114C5.02963 7.04681 4.88739 6.76386 4.70689 6.39253C4.52628 6.02106 4.36664 5.66173 4.22786 5.31462C4.17238 5.16884 4.08904 5.05786 3.97799 4.98148L3.92587 4.95015C3.89122 4.92243 3.8356 4.893 3.7593 4.86163C3.68289 4.8303 3.60316 4.80784 3.51978 4.79401L0.666572 4.81473C0.375011 4.81473 0.177184 4.88078 0.073018 5.0127L0.0313299 5.07511C0.0105041 5.10987 0 5.16538 0 5.24179C0 5.31816 0.0208258 5.4119 0.0625139 5.52288C0.47903 6.5018 0.931983 7.44589 1.42137 8.3553C1.91076 9.26471 2.33603 9.99726 2.69692 10.5523C3.05789 11.1077 3.42583 11.632 3.80073 12.1247C4.17563 12.6176 4.42379 12.9335 4.54521 13.0723C4.66677 13.2113 4.76225 13.3153 4.83166 13.3847L5.09204 13.6346C5.25865 13.8012 5.5033 14.0008 5.82612 14.2333C6.14901 14.4659 6.50648 14.695 6.89871 14.9208C7.291 15.1462 7.74739 15.3302 8.2681 15.4725C8.78875 15.6149 9.2955 15.6721 9.78842 15.6445H10.986C11.2288 15.6235 11.4128 15.5471 11.5379 15.4153L11.5793 15.3631C11.6072 15.3217 11.6333 15.2573 11.6573 15.1707C11.6817 15.0839 11.6938 14.9883 11.6938 14.8844C11.6867 14.5859 11.7094 14.3169 11.7614 14.0774C11.8133 13.838 11.8724 13.6575 11.9386 13.536C12.0047 13.4145 12.0793 13.312 12.1624 13.2289C12.2456 13.1457 12.3049 13.0952 12.3397 13.0779C12.3743 13.0604 12.4019 13.0485 12.4227 13.0414C12.5893 12.9859 12.7854 13.0397 13.0112 13.203C13.2369 13.3661 13.4486 13.5676 13.6465 13.807C13.8444 14.0466 14.0821 14.3154 14.3597 14.6139C14.6376 14.9124 14.8805 15.1344 15.0886 15.2804L15.2968 15.4053C15.4359 15.4887 15.6164 15.5651 15.8386 15.6345C16.0604 15.7039 16.2547 15.7212 16.4215 15.6865L19.0872 15.645C19.3509 15.645 19.556 15.6013 19.7015 15.5147C19.8474 15.4279 19.934 15.3323 19.9619 15.2283C19.9898 15.1242 19.9913 15.0061 19.9672 14.8741C19.9425 14.7424 19.9182 14.6503 19.894 14.5983Z"/>
	</g>
</svg>

<svg viewBox="0 0 16 16">
	<g id="instagram" class="img">
		<path fill="url(#paint0_radial)" fill-rule="evenodd" clip-rule="evenodd" d="M13.2304 3.72962C13.2304 4.25987 12.8005 4.68962 12.2704 4.68962C11.7403 4.68962 11.3104 4.25987 11.3104 3.72962C11.3104 3.19937 11.7403 2.76962 12.2704 2.76962C12.8006 2.76962 13.2304 3.19937 13.2304 3.72962ZM8 10.6666C6.52725 10.6666 5.33337 9.47275 5.33337 8C5.33337 6.52725 6.52725 5.33337 8 5.33337C9.47275 5.33337 10.6666 6.52725 10.6666 8C10.6666 9.47275 9.47275 10.6666 8 10.6666ZM8 3.89188C5.73112 3.89188 3.89188 5.73112 3.89188 8C3.89188 10.2689 5.73112 12.1081 8 12.1081C10.2689 12.1081 12.1081 10.2689 12.1081 8C12.1081 5.73112 10.2689 3.89188 8 3.89188ZM8 1.4415C10.1361 1.4415 10.3891 1.44963 11.2326 1.48812C12.0126 1.52375 12.4363 1.654 12.7181 1.76363C13.0915 1.90875 13.358 2.08212 13.638 2.36212C13.918 2.642 14.0914 2.9085 14.2365 3.282C14.346 3.56388 14.4764 3.9875 14.512 4.7675C14.5505 5.61112 14.5586 5.86412 14.5586 8.00025C14.5586 10.1364 14.5505 10.3894 14.512 11.2329C14.4764 12.0129 14.3461 12.4365 14.2365 12.7184C14.0914 13.0918 13.918 13.3583 13.638 13.6383C13.3581 13.9183 13.0916 14.0916 12.7181 14.2367C12.4363 14.3462 12.0126 14.4766 11.2326 14.5122C10.3891 14.5507 10.1361 14.5589 8 14.5589C5.86375 14.5589 5.61075 14.5507 4.76725 14.5122C3.98725 14.4766 3.56362 14.3464 3.28175 14.2367C2.90838 14.0916 2.64188 13.9183 2.36188 13.6383C2.082 13.3584 1.9085 13.0919 1.76338 12.7184C1.65387 12.4365 1.5235 12.0129 1.48787 11.2329C1.44938 10.3892 1.44125 10.1362 1.44125 8.00025C1.44125 5.86412 1.44938 5.61112 1.48787 4.7675C1.5235 3.9875 1.65375 3.56388 1.76338 3.282C1.9085 2.90863 2.08188 2.64212 2.36188 2.36212C2.64175 2.08212 2.90825 1.90875 3.28175 1.76363C3.56362 1.65412 3.98725 1.52375 4.76725 1.48812C5.61088 1.44963 5.86387 1.4415 8 1.4415ZM8 0C5.82737 0 5.55487 0.00925 4.70162 0.048125C3.85012 0.087 3.2685 0.22225 2.75975 0.42C2.23362 0.624375 1.7875 0.898 1.34275 1.34275C0.898 1.7875 0.624375 2.23362 0.42 2.75975C0.22225 3.26862 0.087 3.85012 0.048125 4.70162C0.00925 5.55487 0 5.82737 0 8C0 10.1726 0.00925 10.4451 0.048125 11.2984C0.087 12.1499 0.22225 12.7314 0.42 13.2402C0.624375 13.7664 0.898 14.2125 1.34275 14.6573C1.7875 15.102 2.23362 15.3755 2.75975 15.58C3.26862 15.7778 3.85012 15.913 4.70162 15.9519C5.55487 15.9907 5.82737 16 8 16C10.1726 16 10.4451 15.9907 11.2984 15.9519C12.1499 15.913 12.7314 15.7778 13.2402 15.58C13.7664 15.3755 14.2125 15.102 14.6573 14.6573C15.102 14.2125 15.3755 13.7664 15.58 13.2402C15.7778 12.7314 15.913 12.1499 15.9519 11.2984C15.9907 10.4451 16 10.1726 16 8C16 5.82737 15.9907 5.55487 15.9519 4.70162C15.913 3.85012 15.7778 3.26862 15.58 2.75975C15.3755 2.23362 15.102 1.7875 14.6573 1.34275C14.2125 0.898 13.7664 0.6245 13.2402 0.42C12.7314 0.22225 12.1499 0.087 11.2984 0.048125C10.4451 0.00925 10.1726 0 8 0Z"/>
		<defs>
			<radialGradient id="paint0_radial" cx="0" cy="0" r="1" gradientUnits="userSpaceOnUse" gradientTransform="translate(2.38889 16.0555) scale(20.444)">
				<stop stop-color="#FFB140"/>
				<stop offset="0.2559" stop-color="#FF5445"/>
				<stop offset="0.599" stop-color="#FC2B82"/>
				<stop offset="1" stop-color="#8E40B7"/>
			</radialGradient>
		</defs>
	</g>
</svg>

<svg viewBox="0 0 18 18">
	<g id="youtube" class="img">
		<path fill="#E02F2F" d="M17.8144 5.16319C17.8144 5.16319 17.6389 3.83963 17.0994 3.25688C16.4149 2.493 15.6482 2.4885 15.2966 2.44519C12.7783 2.25 9.00113 2.25 9.00113 2.25H8.99269C8.99269 2.25 5.2155 2.25 2.69775 2.44519C2.34619 2.4885 1.58006 2.493 0.894937 3.25688C0.356062 3.83963 0.18 5.16319 0.18 5.16319C0.18 5.16319 0 6.71625 0 8.26931V9.72506C0 11.2793 0.18 12.8317 0.18 12.8317C0.18 12.8317 0.3555 14.1547 0.894937 14.7364C1.58006 15.5002 2.47837 15.4772 2.87888 15.5571C4.31831 15.7044 8.99719 15.75 8.99719 15.75C8.99719 15.75 12.7783 15.7432 15.2966 15.5503C15.6482 15.5053 16.4149 15.5008 17.0994 14.7369C17.6383 14.1553 17.8144 12.8323 17.8144 12.8323C17.8144 12.8323 17.9944 11.2793 17.9944 9.72563V8.26987C17.9944 6.71625 17.8144 5.16319 17.8144 5.16319Z"/>
		<path fill="white" d="M6.75 5.625V12.375L12.375 9L6.75 5.625Z"/>
	</g>
</svg>

<svg viewBox="0 0 20 20" fill="none" xmlns="http://www.w3.org/2000/svg">
	<g id="dzen" class="img">
		<path fill="url(#paint0_linear)" fill-rule="evenodd" clip-rule="evenodd" d="M11.9333 11.9321C10.3567 13.5472 10.2458 15.5721 10.1122 19.9999C14.2333 19.9999 17.0884 19.9866 18.5542 18.5545C19.9855 17.0888 19.9992 14.0985 19.9995 10.1106C15.5725 10.2442 13.548 10.3551 11.9333 11.9321ZM0.00390625 10.1106C0.00390625 14.0985 0.0175741 17.0888 1.44893 18.5545C2.9147 19.9866 5.77016 19.9999 9.89122 19.9999C9.75764 15.5721 9.6468 13.5472 8.07011 11.9321C6.4555 10.3551 4.43097 10.2442 0.00390625 10.1106ZM9.89122 0C5.77016 0.000391811 2.91462 0.0141053 1.44885 1.44578C0.0175748 2.91155 0.00390625 5.90185 0.00390625 9.88973C4.43097 9.75607 6.45542 9.64523 8.07011 8.06817C9.64672 6.45313 9.75764 4.42825 9.89122 0ZM11.9333 8.06817C10.3567 6.45313 10.2458 4.42825 10.1122 0C14.2333 0.000391811 17.0884 0.0141053 18.5542 1.44578C19.9855 2.91155 19.9992 5.90185 19.9995 9.88973C15.5725 9.75607 13.548 9.64523 11.9333 8.06817Z"/>
		<path fill="white" fill-rule="evenodd" clip-rule="evenodd" d="M19.9957 10.1103V9.99976V9.88968C15.5687 9.75568 13.5442 9.64518 11.9295 8.06778C10.3528 6.45313 10.242 4.42825 10.1084 0H9.9979H9.8874C9.75382 4.42825 9.64289 6.45313 8.06629 8.06778C6.4516 9.64518 4.42715 9.75568 0 9.88968V9.99976V10.1103C4.42715 10.2443 6.4516 10.3548 8.06629 11.9318C9.64289 13.5469 9.75382 15.5718 9.8874 20H9.9979H10.1084C10.242 15.5718 10.3528 13.5469 11.9295 11.9318C13.5442 10.3548 15.5687 10.2443 19.9957 10.1103Z"/>
		<defs>
			<linearGradient id="paint0_linear" x1="11.5847" y1="20.7777" x2="11.6125" y2="-2.92258e-07" gradientUnits="userSpaceOnUse">
				<stop stop-color="#3E4246"/>
				<stop offset="0.5" stop-color="#2D3036"/>
				<stop offset="1" stop-color="#3F4347"/>
			</linearGradient>
		</defs>
	</g>
</svg>

<svg viewBox="0 0 10 18">
	<g id="ok" class="img">
		<path fill="#EE8208" d="M4.93751 8.97464C5.82502 8.97464 6.6926 8.71146 7.43054 8.21839C8.16847 7.72531 8.74362 7.02449 9.08326 6.20454C9.42289 5.38459 9.51176 4.48234 9.33861 3.61189C9.16547 2.74143 8.73809 1.94187 8.11053 1.31431C7.48297 0.686744 6.6834 0.259369 5.81295 0.0862246C4.94249 -0.0869196 4.04024 0.00194428 3.22029 0.341579C2.40034 0.681213 1.69952 1.25636 1.20644 1.9943C0.713372 2.73223 0.450195 3.59981 0.450195 4.48732C0.450195 5.67743 0.922965 6.8188 1.7645 7.66033C2.60604 8.50187 3.7474 8.97464 4.93751 8.97464ZM4.93751 2.69239C5.29252 2.69239 5.63955 2.79766 5.93472 2.99489C6.2299 3.19212 6.45996 3.47245 6.59581 3.80043C6.73167 4.12841 6.76721 4.48931 6.69795 4.83749C6.6287 5.18567 6.45775 5.5055 6.20672 5.75652C5.9557 6.00755 5.63587 6.1785 5.28769 6.24776C4.93951 6.31702 4.57861 6.28147 4.25063 6.14562C3.92265 6.00976 3.64232 5.7797 3.44509 5.48453C3.24786 5.18935 3.14259 4.84232 3.14259 4.48732C3.14312 4.01144 3.3324 3.5552 3.6689 3.2187C4.0054 2.88221 4.46163 2.69293 4.93751 2.69239Z"/>
		<path fill="#EE8208" d="M6.57917 12.6103C7.5804 12.419 8.53833 12.0466 9.40593 11.5115C9.54645 11.4244 9.66838 11.3103 9.76473 11.1759C9.86107 11.0415 9.92994 10.8894 9.96738 10.7283C10.0048 10.5673 10.0101 10.4004 9.98289 10.2373C9.9557 10.0742 9.89657 9.91802 9.8089 9.77781C9.72123 9.63759 9.60674 9.51607 9.47201 9.4202C9.33727 9.32432 9.18493 9.25599 9.02373 9.21913C8.86252 9.18226 8.69563 9.17757 8.53261 9.20534C8.36959 9.23311 8.21366 9.29279 8.07376 9.38096C7.14511 9.94694 6.08063 10.2511 4.99314 10.2612C3.90566 10.2713 2.8357 9.98702 1.89669 9.4384C1.61101 9.2694 1.27007 9.22027 0.948304 9.30175C0.626535 9.38322 0.350061 9.58867 0.179232 9.87326C0.00840288 10.1579 -0.0429089 10.4985 0.0364973 10.8207C0.115903 11.143 0.319579 11.4208 0.603065 11.5935C1.43546 12.0852 2.34657 12.4293 3.29616 12.6107L0.459336 15.4476C0.342314 15.5642 0.24944 15.7028 0.18603 15.8553C0.12262 16.0079 0.0899187 16.1715 0.0897982 16.3367C0.0896777 16.5019 0.12214 16.6655 0.185328 16.8181C0.248515 16.9708 0.341187 17.1095 0.458039 17.2263C0.574891 17.3431 0.713629 17.4357 0.866313 17.4988C1.019 17.5619 1.18263 17.5943 1.34784 17.5941C1.51305 17.5939 1.6766 17.5611 1.82913 17.4976C1.98166 17.4341 2.12017 17.3412 2.23674 17.2241L4.93789 14.523L7.63905 17.2241C7.75561 17.3412 7.89412 17.4341 8.04665 17.4976C8.19918 17.5611 8.36273 17.5939 8.52794 17.5941C8.69316 17.5943 8.85679 17.5619 9.00947 17.4988C9.16215 17.4357 9.30089 17.3431 9.41774 17.2263C9.5346 17.1095 9.62727 16.9708 9.69046 16.8182C9.75364 16.6655 9.78611 16.5019 9.78598 16.3367C9.78586 16.1715 9.75316 16.0079 9.68975 15.8553C9.62634 15.7028 9.53347 15.5642 9.41645 15.4476L6.57917 12.6103Z"/>
	</g>
</svg>

<svg viewBox="0 0 8 18">
	<g id="fb" class="img">
		<path fill="#4267B2" d="M7.67785 8.65972H5.30497V17.3529H1.70985V8.65972H0V5.6046H1.70985V3.6276C1.70985 2.21382 2.38142 0 5.33697 0L8 0.0111412V2.97665H6.0678C5.75086 2.97665 5.3052 3.135 5.3052 3.80941V5.60745H7.99194L7.67785 8.65972Z"/>
	</g>
</svg>

<svg viewBox="0 0 18 16" fill="none" xmlns="http://www.w3.org/2000/svg">
	<g id="twitter" class="img">
		<path fill="#03A9F4" d="M18 2.41887C17.3306 2.7125 16.6174 2.90712 15.8737 3.00162C16.6388 2.54487 17.2226 1.82712 17.4971 0.962C16.7839 1.38725 15.9964 1.68763 15.1571 1.85525C14.4799 1.13413 13.5146 0.6875 12.4616 0.6875C10.4186 0.6875 8.77387 2.34575 8.77387 4.37863C8.77387 4.67113 8.79862 4.95237 8.85938 5.22012C5.7915 5.0705 3.07687 3.60013 1.25325 1.36025C0.934875 1.91263 0.748125 2.54488 0.748125 3.2255C0.748125 4.5035 1.40625 5.63637 2.38725 6.29225C1.79437 6.281 1.21275 6.10888 0.72 5.83775C0.72 5.849 0.72 5.86363 0.72 5.87825C0.72 7.6715 1.99912 9.161 3.6765 9.50412C3.37612 9.58625 3.04875 9.62562 2.709 9.62562C2.47275 9.62562 2.23425 9.61213 2.01038 9.56262C2.4885 11.024 3.84525 12.0984 5.4585 12.1332C4.203 13.1154 2.60888 13.7071 0.883125 13.7071C0.5805 13.7071 0.29025 13.6936 0 13.6565C1.63462 14.7106 3.57188 15.3125 5.661 15.3125C12.4515 15.3125 16.164 9.6875 16.164 4.81175C16.164 4.64862 16.1584 4.49113 16.1505 4.33475C16.8829 3.815 17.4982 3.16587 18 2.41887Z"/>
	</g>
</svg>

</svg>
